<svg xmlns:dc="http://purl.org/dc/elements/1.1/" xmlns:cc="http://creativecommons.org/ns#" xmlns:rdf="http://www.w3.org/1999/02/22-rdf-syntax-ns#" xmlns:svg="http://www.w3.org/2000/svg" xmlns="http://www.w3.org/2000/svg" viewBox="0 0 280 280" fill="none"><metadata><rdf:RDF><cc:Work><dc:format>image/svg+xml</dc:format><dc:type rdf:resource="http://purl.org/dc/dcmitype/StillImage"/><dc:title>Avataaars</dc:title><dc:creator><cc:Agent><dc:title>Pablo Stanley</dc:title></cc:Agent></dc:creator><dc:source>https://avataaars.com/</dc:source><cc:license rdf:resource="https://avataaars.com/"/><dc:contributor><cc:Agent><dc:title>Florian Körner</dc:title></cc:Agent></dc:contributor></cc:Work></rdf:RDF></metadata><mask id="avatarsRadiusMask"><rect width="280" height="280" rx="0" ry="0" x="0" y="0" fill="#fff"/></mask><g mask="url(#avatarsRadiusMask)"><g transform="translate(40, 36)"><path d="M100 0C69.072 0 44 25.072 44 56v6.166c-5.675.952-10 5.888-10 11.834v14c0 6.052 4.48 11.058 10.305 11.881 2.067 19.806 14.458 36.541 31.695 44.73V163h-4c-39.764 0-72 32.236-72 72v9h200v-9c0-39.764-32.236-72-72-72h-4v-18.389c17.237-8.189 29.628-24.924 31.695-44.73C161.52 99.058 166 94.052 166 88V74c0-5.946-4.325-10.882-10-11.834V56c0-30.928-25.072-56-56-56z" fill="#AE5D29"/><path d="M76 144.611v8A55.79 55.79 0 00100 158a55.789 55.789 0 0024-5.389v-8A55.789 55.789 0 01100 150a55.79 55.79 0 01-24-5.389z" fill="#000" fill-opacity=".1"/></g><g transform="translate(8, 170)"><path d="M92.68 29.936C58.295 35.366 32 65.138 32 101.052V110h200v-8.948c0-35.914-26.294-65.686-60.681-71.116a23.874 23.874 0 01-7.555 13.603l-29.085 26.229a4 4 0 01-5.358 0l-29.085-26.229a23.871 23.871 0 01-7.555-13.603z" fill="#FFAFB9"/></g><g transform="translate(86, 134)"><path fill-rule="evenodd" clip-rule="evenodd" d="M40 29c0-7.732 6.268-14 14-14s14 6.268 14 14" fill="#000" fill-opacity=".7"/></g><g transform="translate(112, 122)"><path fill-rule="evenodd" clip-rule="evenodd" d="M16 8c0 4.418 5.373 8 12 8s12-3.582 12-8" fill="#000" fill-opacity=".16"/></g><g transform="translate(84, 90)"><path d="M35.958 10c-2.55 0-5.074 1.98-6.458 3.82-1.39-1.84-3.907-3.82-6.458-3.82C17.552 10 14 13.334 14 17.641c0 5.73 4.412 9.13 9.042 12.736 1.653 1.236 4.78 4.4 5.166 5.094.386.693 2.106.718 2.584 0 .477-.718 3.51-3.858 5.166-5.094C40.585 26.77 45 23.37 45 17.64c0-4.306-3.552-7.64-9.042-7.64zm53 0c-2.55 0-5.074 1.98-6.458 3.82-1.39-1.84-3.907-3.82-6.458-3.82C70.552 10 67 13.334 67 17.641c0 5.73 4.412 9.13 9.042 12.736 1.653 1.236 4.78 4.4 5.166 5.094.386.693 2.106.718 2.584 0 .477-.718 3.51-3.858 5.166-5.094C93.585 26.77 98 23.37 98 17.64c0-4.306-3.552-7.64-9.042-7.64z" fill="#FF5353" fill-opacity=".8"/></g><g transform="translate(84, 82)"><path fill-rule="evenodd" clip-rule="evenodd" d="M36.37 6.876c-1.97 2.905-5.546 4.64-8.738 5.684-3.943 1.29-18.552 3.38-15.112 11.348a.147.147 0 00.272.002c1.153-2.645 17.465-5.123 18.973-5.704 4.445-1.709 8.393-5.49 9.162-10.543.352-2.317-.637-6.049-1.548-7.55-.11-.18-.374-.136-.43.069-.36 1.331-1.41 4.971-2.58 6.694zm39.26 0c1.97 2.905 5.546 4.64 8.738 5.684 3.943 1.29 18.551 3.379 15.112 11.348a.147.147 0 01-.272.002c-1.153-2.645-17.465-5.123-18.973-5.704-4.445-1.709-8.393-5.49-9.162-10.543-.352-2.317.637-6.049 1.548-7.55.11-.18.374-.136.43.069.36 1.331 1.41 4.971 2.58 6.694z" fill="#000" fill-opacity=".6"/></g><g transform="translate(7, 0)"><path d="M67 65c0-8.16 1.603-15.947 4.51-23.06-3.87-8.946-8.335-22.964-3.874-32.82 8.002-2.427 17.806 1.335 25.635 5.725C103.127 8.007 115.096 4 128 4h10c12.916 0 24.894 4.014 34.755 10.862 7.833-4.398 17.652-8.172 25.664-5.742 4.473 9.88-.026 23.942-3.902 32.884A60.815 60.815 0 01199 65v8H67v-8z" fill="#FF488E"/><path d="M194.517 42.005c3.876-8.943 8.375-23.005 3.902-32.885-8.012-2.43-17.831 1.344-25.664 5.742 9.649 6.702 17.272 16.118 21.762 27.142zM93.27 14.845c-7.828-4.39-17.632-8.152-25.634-5.725-4.461 9.856.005 23.874 3.874 32.82 4.498-11.007 12.118-20.405 21.76-27.095z" fill="#000" fill-opacity=".24"/><path d="M190.2 33.42c1.986-6.006 3.49-12.863 1.486-16.106-2.669-1.154-7.583.48-12.403 2.778A61.281 61.281 0 01190.2 33.42zM86.66 20.144c-4.925-2.38-10.003-4.116-12.733-2.936-2.058 3.33-.417 10.47 1.647 16.589A61.277 61.277 0 0186.66 20.144z" fill="#fff" fill-opacity=".3"/><path fill-rule="evenodd" clip-rule="evenodd" d="M64 69.772c0-2.389 1.058-4.64 3.046-5.963C74.846 58.62 97.47 46 133.073 46c35.606 0 58.137 12.62 65.898 17.81 1.979 1.323 3.029 3.567 3.029 5.947V99.95c0 3.306-3.907 5.385-6.783 3.756C184.842 97.829 163.109 88 133.804 88c-29.759 0-52.525 10.137-63.172 15.977-2.853 1.565-6.632-.496-6.632-3.749V69.772z" fill="#000" fill-opacity=".1"/><path fill-rule="evenodd" clip-rule="evenodd" d="M64 67.772c0-2.389 1.058-4.64 3.046-5.963C74.846 56.62 97.47 44 133.073 44c35.606 0 58.137 12.62 65.898 17.81 1.979 1.323 3.029 3.567 3.029 5.947V97.95c0 3.306-3.907 5.385-6.783 3.756C184.842 95.829 163.109 86 133.804 86c-29.759 0-52.525 10.137-63.172 15.977-2.853 1.565-6.632-.496-6.632-3.75V67.773z" fill="#F4F4F4"/></g></g></svg>