<svg width="519" height="248" viewBox="0 0 519 248" fill="none" xmlns="http://www.w3.org/2000/svg">
<rect width="519" height="248" fill="#E5E5E5"/>
<path d="M11.8408 196.082C12.3138 157.3 23.906 120.97 27.0597 82.5997C28.8812 60.4382 42.0389 39.2112 42.0389 17.1706C42.0389 10.6355 44.4881 -8.19433 48.0305 9.38142C55.8137 47.9977 55.6671 87.5497 61.9312 126.339C63.4754 135.901 66.7379 145.512 67.8031 155.099C68.5099 161.46 67.2927 167.883 69.1213 174.153C71.0838 180.881 74.3939 187.719 74.3939 194.884C74.3939 208.305 74.3939 168.041 74.3939 154.62C74.3939 142.39 77.587 121.792 62.4106 116.273C51.9577 112.472 43.7625 102.195 32.6919 97.8186C26.5724 95.3993 18.3535 96.8599 11.8408 96.8599C5.22889 96.8599 -2.71248 99.3996 8.24581 105.728C25.1632 115.497 44.6437 121.816 63.1296 127.777C70.5089 130.157 80.8971 134.052 89.2533 133.409C95.2811 132.945 101.724 129.77 106.389 125.979C113.599 120.122 113.22 106.679 113.22 98.5376C113.22 80.7223 113.22 62.9071 113.22 45.0918C113.22 34.5465 113.22 24.0011 113.22 13.4558C113.22 -6.30961 113.22 16.4597 113.22 23.2821C113.22 44.972 113.22 66.6619 113.22 88.3517C113.22 112.465 107.245 146.919 122.327 167.801C128.005 175.663 129.723 180.983 140.183 180.983C142.383 180.983 151.163 182.334 152.765 180.504C155.392 177.502 152.13 161.33 151.926 157.256C151.343 145.588 148.264 134.441 147.732 122.744C147.213 111.322 137.208 116.523 154.203 116.273C165.319 116.109 176.844 112.809 183.442 103.211C193.586 88.4562 203.615 67.9971 205.732 50.005C206.567 42.9067 205.971 35.4606 205.971 28.3151C205.971 24.4906 198.698 10.167 197.822 15.6128C194.818 34.3095 196.352 58.4612 200.699 77.0874C204.197 92.0804 203.002 105.928 203.934 121.306C204.827 136.037 209.962 150.843 212.203 165.405C213.745 175.432 214.065 185.14 223.826 191.648C244.18 205.218 275.564 193.6 285.301 172.355C291.046 159.822 291.018 127.681 287.818 113.277C286.938 109.32 273.986 109.608 270.681 109.802C267.291 110.001 272.885 113.395 273.797 113.637C278.685 114.93 284.63 114.116 289.615 114.116C310.746 114.116 331.876 114.116 353.007 114.116C382.205 114.116 352.557 109.765 339.226 117.951C315.457 132.546 312.457 166.022 313.821 190.809C314.468 202.565 335.93 198.239 344.978 198.239C368.526 198.239 361.275 172.115 361.275 154.74C361.275 144.168 359.448 134.148 359.118 123.942C358.711 111.305 360.181 150.31 366.788 161.091C377.34 178.307 408.43 178.653 427.184 174.153C453.818 167.76 462.655 138.386 462.655 114.835C462.655 106.967 463.801 76.1423 446.717 89.4302C442.548 92.6729 444.288 109.42 448.514 112.438C455.686 117.561 466.49 117.588 474.638 121.785C482.737 125.957 489.599 130.999 497.287 136.764C514.312 149.534 525.143 245.693 506.873 245.693C493.012 245.693 479.152 245.693 465.291 245.693C450.121 245.693 442.413 225.894 434.614 215.495" stroke="black" stroke-width="4" stroke-linecap="round"/>
</svg>
